<svg version="1.1" id="Layer_1" xmlns="http://www.w3.org/2000/svg" xmlns:xlink="http://www.w3.org/1999/xlink" x="0px" y="0px"
	 width="100%" viewBox="0 0 1080 1080" enable-background="new 0 0 1080 1080" xml:space="preserve">
  <style>
    @media (prefers-color-scheme: dark) {
      .dark-fill-1, .dark-fill-2 { 
		fill: #c09662 !important; 
		}
    }
  </style>
<path fill="none" opacity="1.000000" stroke="none" 
	d="
M608.000000,1081.000000 
	C405.356659,1081.000000 203.213318,1081.000000 1.034993,1081.000000 
	C1.034993,721.064880 1.034993,361.129730 1.034993,1.097306 
	C360.893585,1.097306 720.787170,1.097306 1080.840332,1.097306 
	C1080.840332,360.999939 1080.840332,720.999939 1080.840332,1081.000000 
	C923.462646,1081.000000 765.981323,1081.000000 608.000000,1081.000000 
M932.472595,707.108215 
	C964.753296,645.427063 980.978638,579.611938 982.753296,510.176117 
	C983.447571,483.009369 981.363525,455.972565 976.967957,429.135498 
	C970.177612,387.678070 957.955139,347.877991 939.919312,309.945923 
	C908.365234,243.582779 863.151184,188.231110 804.627502,143.835556 
	C764.349304,113.280769 720.040100,90.482224 671.882324,74.910301 
	C635.070740,63.007191 597.328979,56.385010 558.873901,54.224224 
	C523.042908,52.210896 487.315125,54.625633 451.999939,61.288795 
	C399.478424,71.198402 350.182983,89.912224 304.465515,117.539658 
	C258.277069,145.451691 218.264603,180.603058 184.664917,222.924881 
	C153.111252,262.669556 129.050125,306.555969 112.323677,354.450653 
	C98.586693,393.785309 90.404503,434.321960 88.337029,475.883575 
	C87.047684,501.802704 87.525230,527.770996 90.748520,553.676758 
	C94.064819,580.330078 99.292862,606.525085 107.174553,632.144470 
	C123.395142,684.869507 148.400116,733.091980 182.367844,776.620667 
	C199.218826,798.214722 217.600388,818.440735 238.566376,836.045410 
	C254.988220,849.834595 272.362457,862.489563 288.323151,875.812256 
	C237.996155,875.818665 187.669067,875.867432 137.342392,875.742615 
	C133.721848,875.733643 132.211044,876.816711 131.072739,880.244873 
	C123.850273,901.995972 116.378654,923.664429 108.971504,945.354126 
	C105.237404,956.288513 101.466187,967.210205 97.656700,978.297852 
	C73.588356,978.297852 49.989605,978.297852 26.335220,978.297852 
	C26.335220,986.717834 26.335220,994.786743 26.335220,1003.099243 
	C27.766098,1003.099243 28.911362,1003.096313 30.056610,1003.099548 
	C138.482651,1003.410767 246.908661,1003.740417 355.334839,1003.993042 
	C362.440643,1004.009583 369.548370,1003.164368 376.654266,1003.178833 
	C501.238617,1003.433350 625.822693,1003.844055 750.407104,1004.040771 
	C836.395447,1004.176636 922.384277,1004.060181 1008.372864,1003.999756 
	C1022.170349,1003.990051 1033.731812,998.243774 1042.719360,988.208130 
	C1056.805908,972.478821 1059.993530,954.125244 1051.460327,934.873291 
	C1042.883789,915.523682 1026.991455,906.200195 1005.838257,905.979858 
	C998.238953,905.900696 990.638184,905.967102 982.884766,905.967102 
	C982.884766,888.349792 983.068604,871.360168 982.844727,854.375977 
	C982.434937,823.280396 976.511047,793.274231 964.589539,764.481628 
	C956.149109,744.096558 944.856384,725.378357 932.472595,707.108215 
z"/>
<path fill="#FFDE59" opacity="1.000000" stroke="none" 
	d="
M289.313538,875.648499 
	C272.362457,862.489563 254.988220,849.834595 238.566376,836.045410 
	C217.600388,818.440735 199.218826,798.214722 182.367844,776.620667 
	C148.400116,733.091980 123.395142,684.869507 107.174553,632.144470 
	C99.292862,606.525085 94.064819,580.330078 90.748520,553.676758 
	C87.525230,527.770996 87.047684,501.802704 88.337029,475.883575 
	C90.404503,434.321960 98.586693,393.785309 112.323677,354.450653 
	C129.050125,306.555969 153.111252,262.669556 184.664917,222.924881 
	C218.264603,180.603058 258.277069,145.451691 304.465515,117.539658 
	C350.182983,89.912224 399.478424,71.198402 451.999939,61.288795 
	C487.315125,54.625633 523.042908,52.210896 558.873901,54.224224 
	C597.328979,56.385010 635.070740,63.007191 671.882324,74.910301 
	C720.040100,90.482224 764.349304,113.280769 804.627502,143.835556 
	C863.151184,188.231110 908.365234,243.582779 939.919312,309.945923 
	C957.955139,347.877991 970.177612,387.678070 976.967957,429.135498 
	C981.363525,455.972565 983.447571,483.009369 982.753296,510.176117 
	C980.978638,579.611938 964.753296,645.427063 931.862671,707.155884 
	C908.456055,677.834229 880.613831,654.463562 847.907532,636.800659 
	C846.442749,636.009583 845.203918,633.703735 844.947754,631.945007 
	C842.934631,618.124817 842.041626,604.087830 839.199890,590.451843 
	C830.034302,546.471680 809.554688,508.123322 779.783386,474.590393 
	C778.238953,472.850769 777.039246,469.914185 777.226318,467.663513 
	C779.530518,439.946411 782.142639,412.255066 784.631836,384.553162 
	C785.621582,373.538269 786.503723,362.513763 787.528076,350.391602 
	C785.617615,351.916473 784.621765,352.707367 783.630005,353.503448 
	C758.560181,373.627533 733.440796,393.690674 708.482361,413.951996 
	C705.233337,416.589539 702.833862,417.157745 698.851074,415.268463 
	C690.915283,411.504028 682.730835,408.109467 674.374512,405.413055 
	C640.010803,394.324677 604.871643,390.229797 568.918640,394.905518 
	C560.225098,396.036072 551.586365,397.588257 542.550354,399.004913 
	C541.654907,379.876007 540.774109,361.059662 539.831299,340.918976 
	C537.941223,343.104919 537.009644,344.276642 535.982056,345.357056 
	C503.826874,379.165741 471.780884,413.079437 439.454529,446.723816 
	C420.178680,466.785522 400.934418,486.815796 386.312958,510.717651 
	C362.073029,550.342834 348.892944,593.145447 348.931793,639.823547 
	C348.995605,716.484375 348.949280,793.145325 348.949402,869.806213 
	C348.949402,871.726746 348.949432,873.647217 348.949432,875.648499 
	C328.590088,875.648499 308.951813,875.648499 289.313538,875.648499 
M670.522766,212.963318 
	C674.871277,216.847900 679.034180,220.973618 683.642029,224.521378 
	C686.173950,226.470810 689.333435,228.228577 692.422485,228.710373 
	C700.608704,229.987167 707.180969,226.163437 710.361450,219.149323 
	C713.531433,212.158508 711.833557,204.882950 705.531921,198.804886 
	C666.270508,160.936310 619.833313,138.278961 565.311768,132.969437 
	C531.978394,129.723297 499.238770,132.596954 467.309540,143.159607 
	C432.788055,154.579819 402.572723,173.024231 376.545441,198.408829 
	C371.382935,203.443832 368.753998,209.204636 370.466949,216.372925 
	C373.268463,228.096527 387.550995,233.091202 397.063568,225.494232 
	C403.430847,220.409149 409.045441,214.374069 415.462677,209.360321 
	C458.301483,175.890396 506.866608,161.672623 561.002502,166.777008 
	C602.074097,170.649582 638.331299,186.127228 670.522766,212.963318 
M636.357361,228.147476 
	C612.841980,212.184250 586.987732,202.199112 558.731140,199.342621 
	C524.666077,195.898926 492.174652,201.962250 461.869781,218.172668 
	C446.994690,226.129517 433.096252,235.583939 421.833344,248.373123 
	C416.446289,254.490173 415.843628,261.783813 419.709900,268.212769 
	C423.671295,274.799896 430.935944,278.127777 438.573700,275.757507 
	C442.174286,274.640106 445.530518,271.974854 448.391296,269.350250 
	C482.552582,238.008667 522.675964,227.093292 567.880066,235.245789 
	C593.909119,239.940109 616.093201,252.825806 635.046753,271.150299 
	C642.902161,278.744934 653.985962,277.445526 659.667053,271.455139 
	C666.546692,264.200928 666.279236,254.138519 658.239502,246.616043 
	C651.453125,240.266129 644.047607,234.577911 636.357361,228.147476 
M491.108643,278.597076 
	C483.675903,284.419678 475.689941,289.675018 468.969910,296.228455 
	C462.570129,302.469604 463.477264,312.727692 469.577301,318.780334 
	C476.159912,325.311920 485.328857,325.718475 492.583130,319.775482 
	C494.516113,318.191895 496.336731,316.467499 498.306610,314.933167 
	C518.024780,299.575409 539.720703,295.634033 563.506958,303.636169 
	C573.660400,307.051941 581.898987,313.403687 589.912109,320.239319 
	C595.080933,324.648590 601.152588,325.197021 607.200195,322.310059 
	C613.584534,319.262421 616.990112,314.049286 616.987976,306.779724 
	C616.986023,300.130035 613.174133,295.631836 608.600342,291.544617 
	C575.933777,262.353638 530.069580,257.116852 491.108643,278.597076 
z"/>
<path class="dark-fill-1" fill="#010101" opacity="1.000000" stroke="none" 
	d="
M288.818359,875.730347 
	C308.951813,875.648499 328.590088,875.648499 348.949432,875.648499 
	C348.949432,873.647217 348.949402,871.726746 348.949402,869.806213 
	C348.949280,793.145325 348.995605,716.484375 348.931793,639.823547 
	C348.892944,593.145447 362.073029,550.342834 386.312958,510.717651 
	C400.934418,486.815796 420.178680,466.785522 439.454529,446.723816 
	C471.780884,413.079437 503.826874,379.165741 535.982056,345.357056 
	C537.009644,344.276642 537.941223,343.104919 539.831299,340.918976 
	C540.774109,361.059662 541.654907,379.876007 542.550354,399.004913 
	C551.586365,397.588257 560.225098,396.036072 568.918640,394.905518 
	C604.871643,390.229797 640.010803,394.324677 674.374512,405.413055 
	C682.730835,408.109467 690.915283,411.504028 698.851074,415.268463 
	C702.833862,417.157745 705.233337,416.589539 708.482361,413.951996 
	C733.440796,393.690674 758.560181,373.627533 783.630005,353.503448 
	C784.621765,352.707367 785.617615,351.916473 787.528076,350.391602 
	C786.503723,362.513763 785.621582,373.538269 784.631836,384.553162 
	C782.142639,412.255066 779.530518,439.946411 777.226318,467.663513 
	C777.039246,469.914185 778.238953,472.850769 779.783386,474.590393 
	C809.554688,508.123322 830.034302,546.471680 839.199890,590.451843 
	C842.041626,604.087830 842.934631,618.124817 844.947754,631.945007 
	C845.203918,633.703735 846.442749,636.009583 847.907532,636.800659 
	C880.613831,654.463562 908.456055,677.834229 931.573486,707.405029 
	C944.856384,725.378357 956.149109,744.096558 964.589539,764.481628 
	C976.511047,793.274231 982.434937,823.280396 982.844727,854.375977 
	C983.068604,871.360168 982.884766,888.349792 982.884766,905.967102 
	C990.638184,905.967102 998.238953,905.900696 1005.838257,905.979858 
	C1026.991455,906.200195 1042.883789,915.523682 1051.460327,934.873291 
	C1059.993530,954.125244 1056.805908,972.478821 1042.719360,988.208130 
	C1033.731812,998.243774 1022.170349,1003.990051 1008.372864,1003.999756 
	C922.384277,1004.060181 836.395447,1004.176636 750.407104,1004.040771 
	C625.822693,1003.844055 501.238617,1003.433350 376.654266,1003.178833 
	C369.548370,1003.164368 362.440643,1004.009583 355.334839,1003.993042 
	C246.908661,1003.740417 138.482651,1003.410767 30.056610,1003.099548 
	C28.911362,1003.096313 27.766098,1003.099243 26.335220,1003.099243 
	C26.335220,994.786743 26.335220,986.717834 26.335220,978.297852 
	C49.989605,978.297852 73.588356,978.297852 97.656700,978.297852 
	C101.466187,967.210205 105.237404,956.288513 108.971504,945.354126 
	C116.378654,923.664429 123.850273,901.995972 131.072739,880.244873 
	C132.211044,876.816711 133.721848,875.733643 137.342392,875.742615 
	C187.669067,875.867432 237.996155,875.818665 288.818359,875.730347 
M575.730408,475.336731 
	C579.914856,473.545197 583.944946,470.909790 588.310974,470.110962 
	C605.445496,466.976044 622.685913,464.420105 640.987244,461.471863 
	C613.418518,446.873566 585.125977,440.269196 555.104492,440.997040 
	C525.052124,441.725616 497.176117,449.960388 470.342224,465.158630 
	C479.702209,467.267487 488.001953,468.756744 496.065277,471.069885 
	C503.012756,473.062988 505.505951,477.475708 504.977203,484.640533 
	C504.519562,490.841949 501.267212,495.100311 495.828247,497.927917 
	C478.348969,507.015015 460.939575,516.238281 443.388123,525.183167 
	C440.697540,526.554321 437.376465,527.433533 434.386658,527.335022 
	C424.789856,527.018921 420.388428,518.177429 426.063721,510.439209 
	C428.224884,507.492462 431.506836,505.065979 434.759064,503.276794 
	C445.157043,497.556488 455.780518,492.246002 466.943451,486.452118 
	C461.473877,485.252563 456.788116,484.397675 452.202698,483.168396 
	C448.010803,482.044586 444.880341,482.960205 441.607666,486.003906 
	C397.036560,527.456299 373.191101,578.775513 372.233307,639.366455 
	C371.016510,716.339233 371.938660,793.345825 371.938568,870.337830 
	C371.938568,872.091675 371.938599,873.845581 371.938599,875.868042 
	C403.254395,875.868042 433.880615,875.868042 464.580292,875.868042 
	C465.081726,877.146362 465.540924,878.194580 465.909210,879.273743 
	C476.635742,910.704651 487.417297,942.117065 497.984924,973.601318 
	C499.206360,977.240356 500.883270,978.201111 504.650665,978.194824 
	C583.475586,978.063171 662.300781,978.095459 741.125916,978.095459 
	C742.722595,978.095459 744.319275,978.095459 746.124573,978.095459 
	C746.124573,976.516418 746.124573,975.534363 746.124512,974.552307 
	C746.123718,865.230347 746.171448,755.908325 746.036621,646.586548 
	C746.024963,637.123108 745.361572,627.584290 744.061157,618.210938 
	C735.810364,558.737915 708.671143,510.105743 660.360657,473.803955 
	C658.967407,472.757080 657.454651,471.869354 655.869019,470.822510 
	C653.797119,478.417999 649.306152,481.825531 640.873352,483.041351 
	C631.270630,484.425903 621.699585,486.030823 611.014160,487.713257 
	C612.944031,488.911133 613.836670,489.528137 614.784424,490.043640 
	C624.098572,495.109436 633.619019,499.836456 642.648499,505.365906 
	C646.418457,507.674561 649.973633,511.209045 652.152344,515.027344 
	C655.109436,520.209656 651.613281,525.943970 645.645020,525.966370 
	C641.523132,525.981812 636.976074,525.039856 633.341125,523.142395 
	C616.900574,514.560425 600.625610,505.646454 584.513977,496.460846 
	C581.072266,494.498627 578.466980,490.995148 575.642334,488.042938 
	C571.959167,484.193451 572.077515,480.064728 575.730408,475.336731 
M209.159653,956.716248 
	C215.822433,936.784180 222.485229,916.852112 229.144318,896.931091 
	C228.321304,896.625854 228.028839,896.422607 227.736160,896.422363 
	C201.762955,896.398621 175.789261,896.332886 149.817780,896.541504 
	C148.432861,896.552612 146.341736,898.634033 145.804230,900.177979 
	C140.677475,914.904663 135.813721,929.722778 130.877747,944.515808 
	C127.164024,955.645691 123.455048,966.777222 119.598923,978.343018 
	C147.417572,978.343018 174.594360,978.343018 201.976990,978.343018 
	C204.340393,971.310486 206.662628,964.400513 209.159653,956.716248 
z"/>
<path class="dark-fill-2" fill="#030201" opacity="1.000000" stroke="none" 
	d="
M670.261597,212.723816 
	C638.331299,186.127228 602.074097,170.649582 561.002502,166.777008 
	C506.866608,161.672623 458.301483,175.890396 415.462677,209.360321 
	C409.045441,214.374069 403.430847,220.409149 397.063568,225.494232 
	C387.550995,233.091202 373.268463,228.096527 370.466949,216.372925 
	C368.753998,209.204636 371.382935,203.443832 376.545441,198.408829 
	C402.572723,173.024231 432.788055,154.579819 467.309540,143.159607 
	C499.238770,132.596954 531.978394,129.723297 565.311768,132.969437 
	C619.833313,138.278961 666.270508,160.936310 705.531921,198.804886 
	C711.833557,204.882950 713.531433,212.158508 710.361450,219.149323 
	C707.180969,226.163437 700.608704,229.987167 692.422485,228.710373 
	C689.333435,228.228577 686.173950,226.470810 683.642029,224.521378 
	C679.034180,220.973618 674.871277,216.847900 670.261597,212.723816 
z"/>
<path class="dark-fill-2" fill="#030201" opacity="1.000000" stroke="none" 
	d="
M636.636719,228.372147 
	C644.047607,234.577911 651.453125,240.266129 658.239502,246.616043 
	C666.279236,254.138519 666.546692,264.200928 659.667053,271.455139 
	C653.985962,277.445526 642.902161,278.744934 635.046753,271.150299 
	C616.093201,252.825806 593.909119,239.940109 567.880066,235.245789 
	C522.675964,227.093292 482.552582,238.008667 448.391296,269.350250 
	C445.530518,271.974854 442.174286,274.640106 438.573700,275.757507 
	C430.935944,278.127777 423.671295,274.799896 419.709900,268.212769 
	C415.843628,261.783813 416.446289,254.490173 421.833344,248.373123 
	C433.096252,235.583939 446.994690,226.129517 461.869781,218.172668 
	C492.174652,201.962250 524.666077,195.898926 558.731140,199.342621 
	C586.987732,202.199112 612.841980,212.184250 636.636719,228.372147 
z"/>
<path class="dark-fill-2" fill="#030301" opacity="1.000000" stroke="none" 
	d="
M491.416748,278.392395 
	C530.069580,257.116852 575.933777,262.353638 608.600342,291.544617 
	C613.174133,295.631836 616.986023,300.130035 616.987976,306.779724 
	C616.990112,314.049286 613.584534,319.262421 607.200195,322.310059 
	C601.152588,325.197021 595.080933,324.648590 589.912109,320.239319 
	C581.898987,313.403687 573.660400,307.051941 563.506958,303.636169 
	C539.720703,295.634033 518.024780,299.575409 498.306610,314.933167 
	C496.336731,316.467499 494.516113,318.191895 492.583130,319.775482 
	C485.328857,325.718475 476.159912,325.311920 469.577301,318.780334 
	C463.477264,312.727692 462.570129,302.469604 468.969910,296.228455 
	C475.689941,289.675018 483.675903,284.419678 491.416748,278.392395 
z"/>
<path fill="#FEFEFE" opacity="1.000000" stroke="none" 
	d="
M575.472595,475.619080 
	C572.077515,480.064728 571.959167,484.193451 575.642334,488.042938 
	C578.466980,490.995148 581.072266,494.498627 584.513977,496.460846 
	C600.625610,505.646454 616.900574,514.560425 633.341125,523.142395 
	C636.976074,525.039856 641.523132,525.981812 645.645020,525.966370 
	C651.613281,525.943970 655.109436,520.209656 652.152344,515.027344 
	C649.973633,511.209045 646.418457,507.674561 642.648499,505.365906 
	C633.619019,499.836456 624.098572,495.109436 614.784424,490.043640 
	C613.836670,489.528137 612.944031,488.911133 611.014160,487.713257 
	C621.699585,486.030823 631.270630,484.425903 640.873352,483.041351 
	C649.306152,481.825531 653.797119,478.417999 655.869019,470.822510 
	C657.454651,471.869354 658.967407,472.757080 660.360657,473.803955 
	C708.671143,510.105743 735.810364,558.737915 744.061157,618.210938 
	C745.361572,627.584290 746.024963,637.123108 746.036621,646.586548 
	C746.171448,755.908325 746.123718,865.230347 746.124512,974.552307 
	C746.124573,975.534363 746.124573,976.516418 746.124573,978.095459 
	C744.319275,978.095459 742.722595,978.095459 741.125916,978.095459 
	C662.300781,978.095459 583.475586,978.063171 504.650665,978.194824 
	C500.883270,978.201111 499.206360,977.240356 497.984924,973.601318 
	C487.417297,942.117065 476.635742,910.704651 465.909210,879.273743 
	C465.540924,878.194580 465.081726,877.146362 464.580292,875.868042 
	C433.880615,875.868042 403.254395,875.868042 371.938599,875.868042 
	C371.938599,873.845581 371.938568,872.091675 371.938568,870.337830 
	C371.938660,793.345825 371.016510,716.339233 372.233307,639.366455 
	C373.191101,578.775513 397.036560,527.456299 441.607666,486.003906 
	C444.880341,482.960205 448.010803,482.044586 452.202698,483.168396 
	C456.788116,484.397675 461.473877,485.252563 466.943451,486.452118 
	C455.780518,492.246002 445.157043,497.556488 434.759064,503.276794 
	C431.506836,505.065979 428.224884,507.492462 426.063721,510.439209 
	C420.388428,518.177429 424.789856,527.018921 434.386658,527.335022 
	C437.376465,527.433533 440.697540,526.554321 443.388123,525.183167 
	C460.939575,516.238281 478.348969,507.015015 495.828247,497.927917 
	C501.267212,495.100311 504.519562,490.841949 504.977203,484.640533 
	C505.505951,477.475708 503.012756,473.062988 496.065277,471.069885 
	C488.001953,468.756744 479.702209,467.267487 470.342224,465.158630 
	C497.176117,449.960388 525.052124,441.725616 555.104492,440.997040 
	C585.125977,440.269196 613.418518,446.873566 640.987244,461.471863 
	C622.685913,464.420105 605.445496,466.976044 588.310974,470.110962 
	C583.944946,470.909790 579.914856,473.545197 575.472595,475.619080 
M460.004761,728.505737 
	C503.958344,763.874512 575.829956,761.462036 616.936768,723.031860 
	C638.126526,703.221802 649.805176,679.076477 649.167053,649.568054 
	C648.972595,640.575073 648.932861,631.568848 649.176941,622.578308 
	C649.754456,601.305054 643.192871,582.342041 630.961304,565.192505 
	C624.270569,555.811462 616.206177,547.800842 606.417786,541.277283 
	C601.537903,552.914551 596.821045,564.162842 591.775635,576.194641 
	C584.814575,559.381042 578.203247,543.611938 571.794312,527.761108 
	C570.535706,524.648315 568.741760,523.179504 565.424744,522.440430 
	C528.775696,514.274658 494.618835,519.773804 463.670258,541.407043 
	C441.604828,556.830933 426.926758,577.783447 422.846191,604.565552 
	C420.632202,619.096680 421.231537,634.096130 421.057770,648.890137 
	C420.673615,681.599182 434.300690,707.654846 460.004761,728.505737 
z"/>
<path fill="#FCFCFC" opacity="1.000000" stroke="none" 
	d="
M209.072266,957.103394 
	C206.662628,964.400513 204.340393,971.310486 201.976990,978.343018 
	C174.594360,978.343018 147.417572,978.343018 119.598923,978.343018 
	C123.455048,966.777222 127.164024,955.645691 130.877747,944.515808 
	C135.813721,929.722778 140.677475,914.904663 145.804230,900.177979 
	C146.341736,898.634033 148.432861,896.552612 149.817780,896.541504 
	C175.789261,896.332886 201.762955,896.398621 227.736160,896.422363 
	C228.028839,896.422607 228.321304,896.625854 229.144318,896.931091 
	C222.485229,916.852112 215.822433,936.784180 209.072266,957.103394 
z"/>
<path class="dark-fill-1" fill="#010101" opacity="1.000000" stroke="none" 
	d="
M459.735718,728.272339 
	C434.300690,707.654846 420.673615,681.599182 421.057770,648.890137 
	C421.231537,634.096130 420.632202,619.096680 422.846191,604.565552 
	C426.926758,577.783447 441.604828,556.830933 463.670258,541.407043 
	C494.618835,519.773804 528.775696,514.274658 565.424744,522.440430 
	C568.741760,523.179504 570.535706,524.648315 571.794312,527.761108 
	C578.203247,543.611938 584.814575,559.381042 591.775635,576.194641 
	C596.821045,564.162842 601.537903,552.914551 606.417786,541.277283 
	C616.206177,547.800842 624.270569,555.811462 630.961304,565.192505 
	C643.192871,582.342041 649.754456,601.305054 649.176941,622.578308 
	C648.932861,631.568848 648.972595,640.575073 649.167053,649.568054 
	C649.805176,679.076477 638.126526,703.221802 616.936768,723.031860 
	C575.829956,761.462036 503.958344,763.874512 459.735718,728.272339 
z"/>
</svg>
